<svg width="899" height="900" viewBox="0 0 899 900" fill="none" xmlns="http://www.w3.org/2000/svg">
<path d="M518 0H524L532 7L535 17L539 24L543 34L547 44L550 48L553 56L562 76L568 89L572 99L576 107L579 115L583 122L587 132L595 151L599 159L602 167L605 171L608 180L612 187V190L617 188L624 177L631 166L634 160L639 151L650 132L654 127L660 115L668 102L677 87L682 80L683 76H685L687 71L692 66L698 67L703 71L705 74V84L702 100L701 120L700 122L698 148L696 163L695 166L693 200L691 210L690 232L706 225L721 217L732 212L755 201L772 193L782 188L790 184L797 181L802 178L809 175L816 174L824 183L823 188L817 196L809 208H807L805 213L799 220L798 223H796L794 228L786 238L776 252L766 266H764L762 270L757 278L753 284H751V286H749L747 290L743 296V299L761 304L784 307L799 310L803 311L812 312L837 316L856 319L864 321L881 323L888 327L890 332V342L887 345L882 347L861 352L852 354L848 356L830 359L822 362L806 365L796 368L783 370L778 372L760 376L759 381L768 387V389L772 391L789 403L798 410L808 417L820 426L833 436L842 442L850 448L861 456L873 465L891 478L899 485V500L897 503H890L878 498L868 495L863 492L851 489L843 485L834 482L819 477L814 474L800 469L791 466L784 463L776 461L760 455L751 451L745 449L740 447H738L741 457L749 470L754 480L763 496L771 511L777 522L787 540L794 553L800 565L807 577V580H809L813 588L823 607L830 619L837 632L846 649L850 656V662L845 670L843 672H838L837 669L834 668V666H832V664H830L823 656L812 644L805 636L794 623L788 616V614H786L779 606L774 601L763 588L755 578L747 570V568L744 567L735 556L723 543L722 540L719 539L711 528L699 515L693 509V507L690 509V519L693 535L695 557L699 578L700 589L701 592L703 612L706 626V637L710 659L712 669L713 688L715 699L717 719L718 729L721 741L722 757L723 766L727 788V805L717 814L713 815L710 814L705 805L701 792L699 789L697 779L693 771L690 759L687 750L685 743L682 736L681 729L677 721L673 708L671 706L669 695L665 686L662 675L657 659L655 655L652 643L649 637L645 625L643 621L641 611L638 605L635 593L632 585L629 575L624 560L621 555L618 543L615 537L614 529L610 528L606 536L600 550L595 560L592 568L589 577L578 600L577 606H575L573 612L569 621L565 633L561 642L556 652L552 662L548 671L541 688L536 700L532 710L528 718L525 725L518 741L514 751L509 764L506 770L504 776L500 784L498 790H496L494 799L490 807L488 814L484 821L482 827L476 842L472 849L466 865L462 873L458 883L453 895L448 900H429L424 897L425 892L427 881L429 872L431 862L433 848L436 839L437 827L439 821L442 811L444 795L447 787L450 767L454 753L456 740L458 734L460 720L464 704L466 689L470 676L472 660L475 652L477 637L480 626L483 609L486 600L488 584L492 567L494 554L498 541L500 527L503 517L504 503L503 501L497 503L491 507L479 513L470 518L465 520L454 527L444 532L442 534L434 537L427 541L406 552L400 556L394 559L384 564H382V566L366 574L352 582L337 590L323 597L309 605L299 611L283 619L270 626L261 631L254 635L229 648L222 652L212 658L205 662L198 665L187 671L173 679L167 682L153 690L145 694L135 699L117 709L101 718L88 724L83 722L78 717L74 712V710H72L71 704L75 699L86 690L94 684L105 675L113 667L125 659L129 655L137 648L145 641L154 634L159 632V630L167 623L178 614L186 608L197 598L209 589L213 587V585L223 578L236 566L248 557L260 547L265 542L274 535L284 527L294 518L303 511L313 503L321 496L335 484L346 476H348V474L359 465L366 459L380 448L394 436L406 426L415 419L420 413L405 411L381 408L379 407L355 406L350 404L325 402L316 401L300 399L283 396H270L249 393L231 391L211 390L194 387L181 385L155 384L148 382L125 380L122 379L99 377L96 376L84 375L81 374L54 372L44 370L13 368L3 366L0 363V352L4 341L9 338L37 336L42 335L51 334L90 332L109 330L113 329L166 326L187 323L234 320L245 318L256 317L296 315L307 314L310 313L329 312L342 311L360 310L364 309L382 308L397 306H406V302L400 300L391 294L376 286L360 277L350 271L336 263L325 257L308 247L294 239L283 233L274 228L266 223L251 214L235 206L227 201L203 187L189 180L180 174L155 160L145 154L137 150L120 139L119 138V133L130 122H140L151 126L172 133L181 135L187 138L199 141L207 144L218 148L231 152L242 156L252 159L259 161L274 166L286 170L290 172L298 174L304 177L315 180L323 183L332 185L341 188L353 192L370 198L377 200L389 205L399 207L407 210L417 213L425 216L434 219L439 221L448 223L452 225H458L452 216V214H450L440 201L435 195V193H433L426 183L421 178L410 164L406 158L403 155V153L400 152L392 141L382 129L375 120L363 106L359 101L355 94L348 87L341 78L329 62L319 51V49H317L312 41L301 28L298 24L299 20L303 17L310 15L317 16L326 23L329 25V27L334 29L341 35L351 42V44L355 46L367 56L379 64L386 71L399 81L403 83V85L407 87L421 99L434 109L446 118L457 127L472 139L482 147L493 156L507 166L512 171L521 178L527 183L531 182L530 164L528 158L524 116L522 101L520 80L518 64L516 53L514 21L512 12V4L515 1L518 0Z" fill="#FF4C4C"/>
</svg>
