<svg version="1.2" xmlns="http://www.w3.org/2000/svg" viewBox="0 0 321 321" width="321" height="321">
	<title>asterisque-svg</title>
	<style>
		.s0 { fill: #871802 } 
	</style>
	<path id="Layer" class="s0" d="m147.3 321h26.4l-7-127 43.2 119.9 23.8-9.7-54.7-115.5 85.6 95.3 18.5-19.4-94.4-84.7 114.7 54.7 10.5-24.7-120.8-42.3 127.9 6.1v-26.4l-127.9 7 120.8-43.2-10.5-23.8-114.7 54.7 94.4-85.6-18.5-18.5-85.6 94.4 54.7-114.7-23.8-10.5-43.2 119.9 7-127h-26.4l6.1 127.9-42.3-120.8-24.7 10.5 54.7 114.7-84.7-94.4-19.4 18.5 95.3 85.6-115.5-54.7-9.7 23.8 119.9 43.2-127-7v26.4l127-6.1-119.9 42.3 9.7 24.7 115.5-54.7-95.3 84.7 19.4 19.4 84.7-95.3-54.7 115.5 24.7 9.7 42.3-119.9z"/>
</svg>