<svg version="1.2" xmlns="http://www.w3.org/2000/svg" viewBox="0 0 358 358" width="358" height="358">
	<title>star-svg</title>
	<style>
		.s0 { fill: #e37a68 } 
	</style>
	<path id="Layer" class="s0" d="m365 179l-160.8 3.2 155.4 41.1-156.8-35.3 140.9 77.2-143.8-71.9 118.3 108.6-122.4-104 88.9 133.6-94-130.1 54.3 150.9-59.9-148.8 16.2 159.5-22.3-158.7-22.3 158.7 16.2-159.5-59.9 148.8 54.3-150.9-94 130.1 88.9-133.6-122.4 104 118.3-108.6-143.8 71.9 140.9-77.2-156.8 35.3 155.4-41.1-160.8-3.2 160.8-3.1-155.4-41.2 156.8 35.3-140.9-77.2 143.8 71.9-118.3-108.6 122.4 104-88.9-133.6 94 130.1-54.3-150.9 59.9 148.8-16.2-159.5 22.3 158.7 22.3-158.7-16.2 159.5 59.9-148.8-54.3 150.9 94-130.1-88.9 133.6 122.4-104-118.3 108.6 143.8-71.9-140.9 77.2 156.8-35.3-155.4 41.2z"/>
</svg>